<?xml version="1.0" encoding="UTF-8"?>
<svg id="Camada_1" data-name="Camada 1" xmlns="http://www.w3.org/2000/svg" viewBox="0 0 1080 1350">
  <defs>
    <style>
      .cls-1 {
        stroke-width: 1.36px;
      }

      .cls-1, .cls-2, .cls-3, .cls-4, .cls-5, .cls-6, .cls-7, .cls-8, .cls-9, .cls-10 {
        fill: none;
        stroke: #fff;
        stroke-miterlimit: 10;
      }

      .cls-2 {
        stroke-width: 1.64px;
      }

      .cls-3 {
        stroke-width: 1.15px;
      }

      .cls-4 {
        stroke-width: 1.41px;
      }

      .cls-11 {
        fill: #fff;
        font-family: MicrosoftUighur, 'Microsoft Uighur';
        font-size: 220.35px;
      }

      .cls-5 {
        stroke-width: 1.43px;
      }

      .cls-6 {
        stroke-width: 1.16px;
      }

      .cls-7 {
        stroke-width: 1.33px;
      }

      .cls-8 {
        stroke-width: 1.29px;
      }

      .cls-9 {
        stroke-width: 1.09px;
      }

      .cls-10 {
        stroke-width: 1.68px;
      }
    </style>
  </defs>
  <text class="cls-11" transform="translate(253.03 732.71)"><tspan x="0" y="0">Ekooby</tspan></text>
  <g>
    <g>
      <g>
        <g>
          <path class="cls-10" d="M496.65,505h0c-17.83,18.28-25.12,40.78-20.24,62.49l2.85,12.67"/>
          <path class="cls-10" d="M510.7,592.9l3.79-9.24c11.15-27.19,4.57-56.24-17.83-78.66h0"/>
        </g>
        <g>
          <path class="cls-1" d="M497.1,516.83h0c-14.46,14.82-20.38,33.08-16.42,50.69l2.31,10.27"/>
          <path class="cls-1" d="M508.49,588.12l3.07-7.49c9.05-22.06,3.71-45.62-14.47-63.8h0"/>
        </g>
      </g>
      <g>
        <g>
          <path class="cls-4" d="M571.56,548.44h0c-19.72-.42-36,8.77-45.21,25.52l-5.38,9.77"/>
          <path class="cls-4" d="M531.15,612.46l7.12-3.24c20.96-9.55,33.25-32,33.3-60.77h0"/>
        </g>
        <g>
          <path class="cls-9" d="M566.18,556.2h0c-15.3-.33-27.93,6.8-35.08,19.8l-4.17,7.58"/>
          <path class="cls-9" d="M534.82,605.86l5.52-2.52c16.26-7.41,25.8-24.82,25.83-47.15h0"/>
        </g>
      </g>
      <g>
        <path class="cls-8" d="M423.99,555.2l6.3-.86c11.26-1.54,22.72-.54,33.55,2.94l3.21,1.03"/>
        <path class="cls-8" d="M438.99,590.27h0c-7.04-9.52-11.9-20.52-14.2-32.2l-.6-3.05"/>
        <g>
          <path class="cls-8" d="M429.26,559.68l5.11-.7c9.13-1.25,18.42-.44,27.21,2.39l2.6.84"/>
          <path class="cls-8" d="M441.26,588.26h0c-5.71-7.72-9.65-16.64-11.52-26.11l-.49-2.47"/>
        </g>
      </g>
    </g>
    <g>
      <path class="cls-7" d="M549.35,607.8l2.82,2.8c6.34,6.29,11.95,13.3,16.71,20.89h0"/>
      <path class="cls-7" d="M488.62,610.41l5.27,8.96c16.35,27.83,43.77,33.04,72.13,13.7l2.9-2.32"/>
    </g>
    <g>
      <path class="cls-3" d="M546.58,610.28l2.44,2.42c5.49,5.44,10.34,11.51,14.46,18.09h0"/>
      <path class="cls-3" d="M494.02,612.53l4.56,7.76c14.16,24.09,37.89,28.6,62.44,11.86l2.51-2.01"/>
    </g>
    <g>
      <path class="cls-7" d="M417.59,607.39l8.49-6.71c19.37-15.74,42.72-13.33,59.31,6.11l3.56,4.17"/>
      <path class="cls-2" d="M418.37,607.58l-.18-.37c12.68,26.27,37.93,34.66,63.09,20.49l.23-.13"/>
    </g>
    <g>
      <path class="cls-6" d="M422.16,608.65l7.41-5.85c16.89-13.72,37.26-11.63,51.72,5.32l3.11,3.64"/>
      <path class="cls-5" d="M422.83,608.24l-.15-.32c11.06,22.91,33.07,30.22,55.01,17.87l.2-.11"/>
    </g>
  </g>
</svg>